<svg xmlns="http://www.w3.org/2000/svg" width="212" height="36" viewBox="0 0 212 36" fill="none">
    <path d="M11.8965 36C4.88382 36 0 30.5874 0 23.1189C0 15.6503 4.88382 10.2378 11.8965 10.2378C15.1106 10.2378 17.4482 11.3706 18.9091 13.3427C18.9091 11.9523 20.0305 10.8252 21.4137 10.8252H22.6242C24.6759 10.8252 26.3392 12.4971 26.3392 14.5594V31.6783C26.3392 33.7407 24.6759 35.4126 22.6242 35.4126H21.4137C20.0305 35.4126 18.9091 34.2855 18.9091 32.8951C17.4482 34.8671 15.1106 36 11.8965 36ZM13.0653 29.6224C16.6968 29.6224 19.0344 26.8951 19.0344 23.1189C19.0344 19.3427 16.6968 16.6154 13.0653 16.6154C9.51719 16.6154 7.26312 19.3427 7.26312 23.1189C7.26312 26.8951 9.51719 29.6224 13.0653 29.6224Z" fill="#F89A05"/>
    <path d="M35.6624 0.16783C37.7141 0.16783 39.3774 1.83972 39.3774 3.9021V31.6783C39.3774 33.7407 37.7141 35.4126 35.6624 35.4126C33.6106 35.4126 31.9473 33.7407 31.9473 31.6783V3.9021C31.9473 1.83973 33.6106 0.16783 35.6624 0.16783Z" fill="#F89A05"/>
    <path d="M59.3937 36C56.1796 36 53.842 34.8671 52.3811 32.8951C52.3811 34.2855 51.2597 35.4126 49.8765 35.4126H48.666C46.6142 35.4126 44.951 33.7407 44.951 31.6783V3.9021C44.951 1.83973 46.6142 0.16783 48.666 0.16783C50.7178 0.16783 52.3811 1.83972 52.3811 3.9021V13.3427C53.842 11.3706 56.1796 10.2378 59.3937 10.2378C66.4064 10.2378 71.2902 15.6503 71.2902 23.1189C71.2902 30.5874 66.4064 36 59.3937 36ZM58.2249 29.6224C61.773 29.6224 64.0271 26.8951 64.0271 23.1189C64.0271 19.3427 61.773 16.6154 58.2249 16.6154C54.5934 16.6154 52.2558 19.3427 52.2558 23.1189C52.2558 26.8951 54.5934 29.6224 58.2249 29.6224Z" fill="#F89A05"/>
    <path d="M86.2903 36C79.2776 36 74.3938 30.5874 74.3938 23.1189C74.3938 15.6503 79.2776 10.2378 86.2903 10.2378C89.5044 10.2378 91.842 11.3706 93.3029 13.3427C93.3029 11.9523 94.4242 10.8252 95.8075 10.8252H97.018C99.0697 10.8252 100.733 12.4971 100.733 14.5594V31.6783C100.733 33.7407 99.0697 35.4126 97.018 35.4126H95.8074C94.4242 35.4126 93.3029 34.2855 93.3029 32.8951C91.842 34.8671 89.5044 36 86.2903 36ZM87.459 29.6224C91.0906 29.6224 93.4282 26.8951 93.4282 23.1189C93.4282 19.3427 91.0906 16.6154 87.459 16.6154C83.911 16.6154 81.6569 19.3427 81.6569 23.1189C81.6569 26.8951 83.911 29.6224 87.459 29.6224Z" fill="#F89A05"/>
    <path d="M117.382 10.8252C119.145 10.8252 120.575 12.2622 120.575 14.035C120.575 15.8077 119.145 17.2448 117.382 17.2448H115.9V31.6783C115.9 33.7407 114.237 35.4126 112.185 35.4126C110.133 35.4126 108.47 33.7407 108.47 31.6783V17.2448H107.573C105.809 17.2448 104.379 15.8077 104.379 14.035C104.379 12.2622 105.809 10.8252 107.573 10.8252H108.47V8.39161C108.47 3.56643 111.475 0 116.777 0C117.046 0 117.313 0.00387809 117.576 0.0116343C119.078 0.0559577 120.158 1.34973 120.158 2.86028V4.56998C120.158 5.58663 119.249 6.41958 118.238 6.41958C116.777 6.41958 115.9 7.34266 115.9 8.81119V10.8252H117.382Z" fill="#F89A05"/>
    <path d="M135.314 10.2378C142.869 10.2378 148.295 15.6503 148.295 23.1189C148.295 30.5874 142.869 36 135.314 36C127.758 36 122.332 30.5874 122.332 23.1189C122.332 15.6503 127.758 10.2378 135.314 10.2378ZM135.314 16.6154C131.807 16.6154 129.512 19.3427 129.512 23.1189C129.512 26.8951 131.807 29.6224 135.314 29.6224C138.82 29.6224 141.116 26.8951 141.116 23.1189C141.116 19.3427 138.82 16.6154 135.314 16.6154Z" fill="#F89A05"/>
    <path d="M156.364 35.4126C154.312 35.4126 152.649 33.7407 152.649 31.6783V14.5594C152.649 12.4971 154.312 10.8252 156.364 10.8252H157.574C158.957 10.8252 160.079 11.9523 160.079 13.3427C161.54 11.3706 163.794 10.2378 166.924 10.2378C168.853 10.2378 170.09 11.9793 170.02 13.9161L169.978 15.0706C169.904 17.0968 168.437 16.6987 166.424 16.8252C162.458 16.8252 160.079 19.0909 160.079 22.8252V31.6783C160.079 33.7407 158.415 35.4126 156.364 35.4126Z" fill="#F89A05"/>
    <path d="M177.479 35.4126C175.428 35.4126 173.764 33.7407 173.764 31.6783V14.5594C173.764 12.4971 175.428 10.8252 177.479 10.8252H179.399C180.39 10.8252 181.194 11.6333 181.194 12.6302C181.194 12.804 181.419 12.8803 181.53 12.7472C182.936 11.0632 184.696 10.2378 187.205 10.2378C190.294 10.2378 192.84 11.4965 194.468 13.7622C196.305 11.4126 198.893 10.2378 202.608 10.2378C208.243 10.2378 212 14.3496 212 21.1888V31.6783C212 33.7407 210.337 35.4126 208.285 35.4126C206.233 35.4126 204.57 33.7407 204.57 31.6783V22.4476C204.57 18.7133 203.151 16.6573 200.437 16.6573C198.016 16.6573 196.722 18.5874 196.597 22.0699V31.6783C196.597 33.7407 194.934 35.4126 192.882 35.4126C190.83 35.4126 189.167 33.7407 189.167 31.6783V22.4476C189.167 18.7133 187.748 16.6573 185.035 16.6573C182.614 16.6573 181.32 18.5874 181.194 22.0699V31.6783C181.194 33.7407 179.531 35.4126 177.479 35.4126Z" fill="#F89A05"/>
</svg>