<svg width="22" height="22" viewBox="0 0 22 22" fill="none" xmlns="http://www.w3.org/2000/svg">
<g id="blank-calendar--blank-calendar-date-day-month-empty">
<path id="Vector" d="M2.53846 3.30811C2.13043 3.30811 1.73912 3.4702 1.4506 3.75871C1.16209 4.04723 1 4.43854 1 4.84657V19.462C1 19.87 1.16209 20.2613 1.4506 20.5498C1.73912 20.8383 2.13043 21.0004 2.53846 21.0004H19.4615C19.8695 21.0004 20.2609 20.8383 20.5494 20.5498C20.8378 20.2613 21 19.87 21 19.462V4.84657C21 4.43854 20.8378 4.04723 20.5494 3.75871C20.2609 3.4702 19.8695 3.30811 19.4615 3.30811H16.3846" stroke="black" stroke-width="1.5" stroke-linecap="round" stroke-linejoin="round"/>
<path id="Vector_2" d="M1 8.69189H21" stroke="black" stroke-width="1.5" stroke-linecap="round" stroke-linejoin="round"/>
<path id="Vector_3" d="M5.61523 1V5.61538" stroke="black" stroke-width="1.5" stroke-linecap="round" stroke-linejoin="round"/>
<path id="Vector_4" d="M16.3848 1V5.61538" stroke="black" stroke-width="1.5" stroke-linecap="round" stroke-linejoin="round"/>
<path id="Vector_5" d="M5.61523 3.30811H13.3075" stroke="black" stroke-width="1.5" stroke-linecap="round" stroke-linejoin="round"/>
</g>
</svg>
