<svg width="28" height="28" viewBox="0 0 28 28" fill="none" xmlns="http://www.w3.org/2000/svg">
<path fill-rule="evenodd" clip-rule="evenodd" d="M27.5015 14.3072C27.5027 13.381 27.4189 12.4565 27.2511 11.5449H14.2734V16.7669H21.6876C21.5337 17.592 21.2108 18.378 20.7384 19.0775C20.266 19.777 19.6538 20.3754 18.9389 20.8366V24.2246H23.3902C25.9948 21.8744 27.4977 18.4126 27.4977 14.3047L27.5015 14.3072Z" fill="#3E82F1"/>
<path fill-rule="evenodd" clip-rule="evenodd" d="M14.2754 27.4973C17.9948 27.4973 21.1134 26.2891 23.3922 24.2275L18.9409 20.8395C17.7067 21.6496 16.1287 22.1291 14.2754 22.1291C10.6871 22.1291 7.65036 19.7534 6.56802 16.5625H1.96484V20.0612C3.11153 22.2973 4.87009 24.177 7.04404 25.4901C9.21799 26.8033 11.7217 27.4982 14.2754 27.4973Z" fill="#32A753"/>
<path fill-rule="evenodd" clip-rule="evenodd" d="M6.56827 16.5633C5.99206 14.9003 5.99206 13.0973 6.56827 11.4342V7.93555H1.96509C1.00168 9.81728 0.5 11.8935 0.5 13.9988C0.5 16.1041 1.00168 18.1803 1.96509 20.062L6.56827 16.5633Z" fill="#F9BB00"/>
<path fill-rule="evenodd" clip-rule="evenodd" d="M14.2768 5.8682C16.3 5.8682 18.1155 6.54988 19.5431 7.8878L23.4935 4.01522C21.1082 1.83665 17.9897 0.500001 14.2793 0.500001C11.7256 0.49907 9.22189 1.194 7.04794 2.50716C4.87399 3.82032 3.11543 5.69998 1.96875 7.93612L6.57193 11.4348C7.65426 8.2439 10.691 5.8682 14.2793 5.8682H14.2768Z" fill="#E74133"/>
</svg>
