<svg viewBox="0 0 21 18" fill="none" xmlns="http://www.w3.org/2000/svg">
<g id="logout-1--arrow-exit-frame-leave-logout-rectangle-right">
<path id="Exclude" fill-rule="evenodd" clip-rule="evenodd" d="M13.5 16.6154V13.8462V10H16.9426L15.8217 11.0346C15.4159 11.4092 15.3906 12.0419 15.7652 12.4477C16.1398 12.8535 16.7725 12.8788 17.1783 12.5042L20.1783 9.735C20.2377 9.68018 20.2896 9.61891 20.3335 9.55273C20.4387 9.39444 20.5 9.20448 20.5 9.00019V9C20.5 8.70329 20.3708 8.43676 20.1655 8.25362L17.1783 5.49616C16.7725 5.12155 16.1398 5.14686 15.7652 5.55268C15.3906 5.9585 15.4159 6.59116 15.8217 6.96577L16.9421 8H13.5V4.15385V1.38462C13.5 1.01739 13.342 0.665211 13.0607 0.405544C12.7794 0.145879 12.3978 0 12 0H1.5C1.10217 0 0.720645 0.145879 0.439339 0.405544C0.158035 0.665211 0 1.01739 0 1.38462V16.6154C0 16.9826 0.158035 17.3348 0.439339 17.5944C0.720645 17.8541 1.10217 18 1.5 18H12C12.3978 18 12.7794 17.8541 13.0607 17.5944C13.342 17.3348 13.5 16.9826 13.5 16.6154ZM13.5 8H9C8.44771 8 8 8.44772 8 9C8 9.55229 8.44771 10 9 10H13.5V8Z" fill="#F89A05"/>
</g>
</svg>
