<svg width="23" height="23" viewBox="0 0 23 23" fill="none" xmlns="http://www.w3.org/2000/svg">
<g id="coins-stack--accounting-billing-payment-stack-cash-coins-currency-money-finance">
<path id="Vector" d="M14.7311 12.3077C18.7459 12.3077 22.0004 10.8613 22.0004 9.07696C22.0004 7.29266 18.7459 5.84619 14.7311 5.84619C10.7165 5.84619 7.46191 7.29266 7.46191 9.07696C7.46191 10.8613 10.7165 12.3077 14.7311 12.3077Z" stroke="black" stroke-width="1.5" stroke-linecap="round" stroke-linejoin="round"/>
<path id="Vector_2" d="M7.46191 9.07666V18.769C7.46191 20.5459 10.6927 21.9997 14.7311 21.9997C18.7696 21.9997 22.0004 20.5459 22.0004 18.769V9.07666" stroke="black" stroke-width="1.5" stroke-linecap="round" stroke-linejoin="round"/>
<path id="Vector_3" d="M22.0004 13.9233C22.0004 15.7003 18.7696 17.1541 14.7311 17.1541C10.6927 17.1541 7.46191 15.7003 7.46191 13.9233" stroke="black" stroke-width="1.5" stroke-linecap="round" stroke-linejoin="round"/>
<path id="Vector_4" d="M14.5692 2.62957C12.6816 1.46467 10.4845 0.901288 8.26923 1.01418C4.24692 1.01418 1 2.46803 1 4.24495C1 5.19803 1.93692 6.05418 3.42308 6.66803" stroke="black" stroke-width="1.5" stroke-linecap="round" stroke-linejoin="round"/>
<path id="Vector_5" d="M3.42308 16.36C1.93692 15.7462 1 14.89 1 13.9369V4.24463" stroke="black" stroke-width="1.5" stroke-linecap="round" stroke-linejoin="round"/>
<path id="Vector_6" d="M3.42308 11.5139C1.93692 10.9001 1 10.0439 1 9.09082" stroke="black" stroke-width="1.5" stroke-linecap="round" stroke-linejoin="round"/>
</g>
</svg>
